<svg id="Layer_1" data-name="Layer 1" xmlns="http://www.w3.org/2000/svg" viewBox="0 0 500 500" width="500" height="500" class="illustration"><defs><style>.cls-1{fill:#f2f2f2;}.cls-2{fill:#e2e2e2;}.cls-3{fill:#b100cd;}.cls-4{fill:#f0457d;}.cls-5{fill:#ffd44d;}.cls-6{fill:#f9bb0d;}</style></defs><title>Learning</title><path class="cls-1" d="M394.31,191.59h0a29.9,29.9,0,0,0-29.9-29.9H86.68v59.8H364.41A29.89,29.89,0,0,0,394.31,191.59Z"></path><path class="cls-2" d="M385.07,170c0,.1,0,.21,0,.31h0a29.9,29.9,0,0,1-29.9,29.9H86.68v21.29H364.41a29.9,29.9,0,0,0,29.9-29.9h0A29.79,29.79,0,0,0,385.07,170Z"></path><path class="cls-3" d="M369.71,133H75.93a4.24,4.24,0,0,0-4.25,4.24v20.22a4.24,4.24,0,0,0,4.25,4.24H364.41a29.9,29.9,0,0,1,29.9,29.9h0a29.89,29.89,0,0,1-29.9,29.9H75.93a4.25,4.25,0,0,0-4.25,4.25V246a4.25,4.25,0,0,0,4.25,4.25H369.71a58.61,58.61,0,0,0,58.61-58.61h0A58.61,58.61,0,0,0,369.71,133Z"></path><path class="cls-1" d="M105.69,308.8h0a29.89,29.89,0,0,1,29.89-29.89H413.32V338.7H135.58A29.89,29.89,0,0,1,105.69,308.8Z"></path><path class="cls-2" d="M114.92,287.18v.31h0a29.9,29.9,0,0,0,29.89,29.9H413.32v21.29H135.58a29.9,29.9,0,0,1-29.89-29.9h0A29.81,29.81,0,0,1,114.92,287.18Z"></path><path class="cls-4" d="M130.29,250.2H424.07a4.25,4.25,0,0,1,4.25,4.24v20.22a4.26,4.26,0,0,1-4.25,4.25H135.58a29.89,29.89,0,0,0-29.89,29.89h0a29.89,29.89,0,0,0,29.89,29.9H424.07a4.25,4.25,0,0,1,4.25,4.25v20.21a4.25,4.25,0,0,1-4.25,4.25H130.29A58.61,58.61,0,0,1,71.68,308.8h0A58.61,58.61,0,0,1,130.29,250.2Z"></path><rect class="cls-5" x="86.68" y="183.57" width="107.19" height="4"></rect><rect class="cls-6" x="306.77" y="299.86" width="58.48" height="4"></rect><rect class="cls-6" x="383.3" y="299.86" width="16.77" height="4"></rect></svg>